<!DOCTYPE svg PUBLIC "-//W3C//DTD SVG 1.1//EN" "http://www.w3.org/Graphics/SVG/1.1/DTD/svg11.dtd">
<!-- Uploaded to: SVG Repo, www.svgrepo.com, Transformed by: SVG Repo Mixer Tools -->
<svg fill="#0000a0" width="800px" height="800px" viewBox="0 0 256 256" id="Flat" xmlns="http://www.w3.org/2000/svg" stroke="#0000a0">
<g id="SVGRepo_bgCarrier" stroke-width="0"/>
<g id="SVGRepo_tracerCarrier" stroke-linecap="round" stroke-linejoin="round"/>
<g id="SVGRepo_iconCarrier"> <path d="M208,40H48A16.01833,16.01833,0,0,0,32,56v48a16.01833,16.01833,0,0,0,16,16H208a16.01833,16.01833,0,0,0,16-16V56A16.01833,16.01833,0,0,0,208,40ZM180.00049,92a12,12,0,1,1,12-12A12,12,0,0,1,180.00049,92ZM208,136H48a16.01833,16.01833,0,0,0-16,16v48a16.01833,16.01833,0,0,0,16,16H208a16.01833,16.01833,0,0,0,16-16V152A16.01833,16.01833,0,0,0,208,136Zm-27.99951,52a12,12,0,1,1,12-12A12,12,0,0,1,180.00049,188Z"/> </g>
</svg>